<svg width="30" height="31" viewBox="0 0 30 31" fill="none" xmlns="http://www.w3.org/2000/svg">
<path d="M19.0594 20.6375L21.1594 18.5375C21.4422 18.2582 21.8001 18.067 22.1895 17.9871C22.5789 17.9072 22.9832 17.9421 23.3531 18.0875L25.9125 19.1094C26.2864 19.2612 26.607 19.5202 26.8339 19.8539C27.0608 20.1876 27.1838 20.5809 27.1875 20.9844V25.6719C27.1853 25.9464 27.1276 26.2176 27.0179 26.4692C26.9081 26.7208 26.7486 26.9476 26.5489 27.1359C26.3492 27.3242 26.1134 27.4701 25.8559 27.565C25.5983 27.6598 25.3241 27.7015 25.05 27.6875C7.11563 26.5719 3.49688 11.3844 2.8125 5.57191C2.78073 5.28648 2.80976 4.99755 2.89767 4.72414C2.98559 4.45073 3.13039 4.19903 3.32257 3.9856C3.51474 3.77218 3.74993 3.60186 4.01265 3.48585C4.27538 3.36984 4.55969 3.31078 4.84688 3.31254H9.375C9.77907 3.31373 10.1735 3.43579 10.5077 3.663C10.8418 3.89022 11.1003 4.2122 11.25 4.58754L12.2719 7.14691C12.4221 7.51542 12.4604 7.92002 12.3821 8.31017C12.3037 8.70033 12.1121 9.05875 11.8313 9.34066L9.73125 11.4407C9.73125 11.4407 10.9406 19.625 19.0594 20.6375Z" fill="#DAA41E"/>
</svg>
