<svg width="50" height="50" viewBox="0 0 50 50" fill="none" xmlns="http://www.w3.org/2000/svg">
<g id="hover=twitter-outline">
<path id="Vector" d="M5.15 25C5.15 14.0371 14.0371 5.15 25 5.15C35.9629 5.15 44.85 14.0371 44.85 25C44.85 35.9629 35.9629 44.85 25 44.85C14.0371 44.85 5.15 35.9629 5.15 25Z" stroke="#FFFEFF" stroke-width="0.3"/>
<path id="Vector_2" d="M33.6471 18.0976C32.7647 18.5299 31.9 18.7055 31 18.9711C30.0109 17.8549 28.5444 17.7932 27.1353 18.3208C25.7262 18.8485 24.8032 20.1385 24.8235 21.6182V22.5005C21.9603 22.5738 19.4103 21.2696 17.7647 18.9711C17.7647 18.9711 14.0747 25.5296 21.2941 28.677C19.6424 29.7773 17.995 30.5194 16 30.4417C18.9188 32.0326 22.0997 32.5796 24.8535 31.7802C28.0124 30.8626 30.6082 28.4952 31.6044 24.9491C31.9016 23.8705 32.0491 22.7563 32.0429 21.6376C32.0429 21.4179 33.3753 19.1926 33.6471 18.0976Z" fill="#DAA41E"/>
</g>
</svg>
