<svg width="50" height="50" viewBox="0 0 50 50" fill="none" xmlns="http://www.w3.org/2000/svg">
<g id="hover=ig">
<path id="Vector" d="M5 25C5 13.9543 13.9543 5 25 5C36.0457 5 45 13.9543 45 25C45 36.0457 36.0457 45 25 45C13.9543 45 5 36.0457 5 25Z" fill="#DAA41E"/>
<g id="Group 1">
<path id="Vector_2" d="M13.6667 19.0833C13.6667 17.6467 14.2374 16.269 15.2532 15.2532C16.269 14.2373 17.6468 13.6667 19.0834 13.6667H29.9167C31.3533 13.6667 32.731 14.2373 33.7468 15.2532C34.7627 16.269 35.3334 17.6467 35.3334 19.0833V29.9167C35.3334 31.3533 34.7627 32.731 33.7468 33.7468C32.731 34.7626 31.3533 35.3333 29.9167 35.3333H19.0834C17.6468 35.3333 16.269 34.7626 15.2532 33.7468C14.2374 32.731 13.6667 31.3533 13.6667 29.9167V19.0833Z" stroke="#333333" stroke-linecap="round" stroke-linejoin="round"/>
<path id="Vector_3" d="M20.3334 24.5C20.3334 25.6051 20.7724 26.6649 21.5538 27.4463C22.3352 28.2277 23.395 28.6667 24.5 28.6667C25.6051 28.6667 26.6649 28.2277 27.4463 27.4463C28.2277 26.6649 28.6667 25.6051 28.6667 24.5C28.6667 23.3949 28.2277 22.3351 27.4463 21.5537C26.6649 20.7723 25.6051 20.3333 24.5 20.3333C23.395 20.3333 22.3352 20.7723 21.5538 21.5537C20.7724 22.3351 20.3334 23.3949 20.3334 24.5Z" stroke="#333333" stroke-linecap="round" stroke-linejoin="round"/>
<path id="Vector_4" d="M30.3334 18.6667V18.6875" stroke="#333333" stroke-linecap="round" stroke-linejoin="round"/>
</g>
</g>
</svg>
