<svg width="50" height="50" viewBox="0 0 50 50" fill="none" xmlns="http://www.w3.org/2000/svg">
<g id="hover=linkedin-outline">
<path id="Vector" d="M5.15 25C5.15 14.0371 14.0371 5.15 25 5.15C35.9629 5.15 44.85 14.0371 44.85 25C44.85 35.9629 35.9629 44.85 25 44.85C14.0371 44.85 5.15 35.9629 5.15 25Z" stroke="#FFFEFF" stroke-width="0.3"/>
<g id="Group 2">
<path id="Vector_2" d="M14.6667 15.5833C14.6667 14.8098 14.974 14.0679 15.521 13.5209C16.0679 12.974 16.8098 12.6667 17.5834 12.6667H35.0834C35.8569 12.6667 36.5988 12.974 37.1457 13.5209C37.6927 14.0679 38 14.8098 38 15.5833V33.0833C38 33.8569 37.6927 34.5988 37.1457 35.1457C36.5988 35.6927 35.8569 36 35.0834 36H17.5834C16.8098 36 16.0679 35.6927 15.521 35.1457C14.974 34.5988 14.6667 33.8569 14.6667 33.0833V15.5833Z" fill="#DAA41E" stroke="#333333" stroke-linecap="round" stroke-linejoin="round"/>
<g id="Vector_3">
<path d="M21.3334 22.6667V29.3333V22.6667Z" fill="#DAA41E"/>
<path d="M21.3334 22.6667V29.3333" stroke="#333333" stroke-linecap="round" stroke-linejoin="round"/>
</g>
<g id="Vector_4">
<path d="M26.3334 29.3333V22.6667V29.3333Z" fill="#DAA41E"/>
<path d="M26.3334 29.3333V22.6667" stroke="#333333" stroke-linecap="round" stroke-linejoin="round"/>
</g>
<g id="Vector_5">
<path d="M31.3334 29.3333V25.3333C31.3334 24.6261 31.07 23.9478 30.6011 23.4477C30.1323 22.9476 29.4964 22.6667 28.8334 22.6667C28.1703 22.6667 27.5344 22.9476 27.0656 23.4477C26.5968 23.9478 26.3334 24.6261 26.3334 25.3333" fill="#DAA41E"/>
<path d="M31.3334 29.3333V25.3333C31.3334 24.6261 31.07 23.9478 30.6011 23.4477C30.1323 22.9476 29.4964 22.6667 28.8334 22.6667C28.1703 22.6667 27.5344 22.9476 27.0656 23.4477C26.5968 23.9478 26.3334 24.6261 26.3334 25.3333" stroke="#333333" stroke-linecap="round" stroke-linejoin="round"/>
</g>
</g>
</g>
</svg>
