<svg width="50" height="50" viewBox="0 0 50 50" fill="none" xmlns="http://www.w3.org/2000/svg">
<g id="hover=Behance-outline">
<path id="Vector" d="M5.25 25C5.25 14.0924 14.0924 5.25 25 5.25C35.9076 5.25 44.75 14.0924 44.75 25C44.75 35.9076 35.9076 44.75 25 44.75C14.0924 44.75 5.25 35.9076 5.25 25Z" stroke="#FFFEFF" stroke-width="0.5"/>
<g id="Group 3">
<path id="Vector_2" d="M13 32.3334V17H18.75C19.7667 17 20.7417 17.4039 21.4606 18.1228C22.1795 18.8416 22.5833 19.8167 22.5833 20.8333C22.5833 21.85 22.1795 22.825 21.4606 23.5439C20.7417 24.2628 19.7667 24.6667 18.75 24.6667C19.7667 24.6667 20.7417 25.0705 21.4606 25.7894C22.1795 26.5083 22.5833 27.4833 22.5833 28.5C22.5833 29.5167 22.1795 30.4917 21.4606 31.2106C20.7417 31.9295 19.7667 32.3334 18.75 32.3334H13Z" stroke="#DAA41E" stroke-linecap="round" stroke-linejoin="round"/>
<path id="Vector_3" d="M13 24.6667H18.75" stroke="#DAA41E" stroke-linecap="round" stroke-linejoin="round"/>
<path id="Vector_4" d="M27.0555 25.9445H36C36 24.7583 35.5288 23.6208 34.6901 22.7821C33.8514 21.9434 32.7139 21.4722 31.5278 21.4722C30.3417 21.4722 29.2041 21.9434 28.3654 22.7821C27.5267 23.6208 27.0555 24.7583 27.0555 25.9445ZM27.0555 25.9445V28.5C27.1873 29.4566 27.6252 30.3449 28.3038 31.032C28.9823 31.7191 29.865 32.1682 30.8199 32.312C31.7748 32.4558 32.7506 32.2866 33.6014 31.8299C34.4522 31.3731 35.1323 30.6532 35.54 29.7778" stroke="#DAA41E" stroke-linecap="round" stroke-linejoin="round"/>
<path id="Vector_5" d="M29.6112 17H33.4445" stroke="#DAA41E" stroke-linecap="round" stroke-linejoin="round"/>
</g>
</g>
</svg>
