<svg width="50" height="50" viewBox="0 0 50 50" fill="none" xmlns="http://www.w3.org/2000/svg">
<g id="hover=ig-outline">
<path id="Vector" d="M5.15 25C5.15 14.0371 14.0371 5.15 25 5.15C35.9629 5.15 44.85 14.0371 44.85 25C44.85 35.9629 35.9629 44.85 25 44.85C14.0371 44.85 5.15 35.9629 5.15 25Z" stroke="#FFFEFF" stroke-width="0.3"/>
<g id="Group 1">
<path id="Vector_2" d="M14 19.4167C14 17.9801 14.5707 16.6023 15.5865 15.5865C16.6023 14.5707 17.9801 14 19.4167 14H30.25C31.6866 14 33.0643 14.5707 34.0802 15.5865C35.096 16.6023 35.6667 17.9801 35.6667 19.4167V30.25C35.6667 31.6866 35.096 33.0643 34.0802 34.0802C33.0643 35.096 31.6866 35.6667 30.25 35.6667H19.4167C17.9801 35.6667 16.6023 35.096 15.5865 34.0802C14.5707 33.0643 14 31.6866 14 30.25V19.4167Z" fill="#DAA41E" stroke="#333333" stroke-linecap="round" stroke-linejoin="round"/>
<path id="Vector_3" d="M20.6667 24.8333C20.6667 25.9384 21.1057 26.9982 21.8871 27.7796C22.6685 28.561 23.7283 29 24.8334 29C25.9384 29 26.9982 28.561 27.7796 27.7796C28.561 26.9982 29 25.9384 29 24.8333C29 23.7283 28.561 22.6685 27.7796 21.8871C26.9982 21.1057 25.9384 20.6667 24.8334 20.6667C23.7283 20.6667 22.6685 21.1057 21.8871 21.8871C21.1057 22.6685 20.6667 23.7283 20.6667 24.8333Z" fill="#DAA41E" stroke="#333333" stroke-linecap="round" stroke-linejoin="round"/>
<g id="Vector_4">
<path d="M30.6667 19V19.0208V19Z" fill="#DAA41E"/>
<path d="M30.6667 19V19.0208" stroke="#333333" stroke-linecap="round" stroke-linejoin="round"/>
</g>
</g>
</g>
</svg>
