<svg width="50" height="50" viewBox="0 0 50 50" fill="none" xmlns="http://www.w3.org/2000/svg">
<g id="hover=linkedin">
<path id="Vector" d="M5 25C5 13.9543 13.9543 5 25 5C36.0457 5 45 13.9543 45 25C45 36.0457 36.0457 45 25 45C13.9543 45 5 36.0457 5 25Z" fill="#DAA41E"/>
<g id="Group 2">
<path id="Vector_2" d="M14 16.9167C14 16.1431 14.3073 15.4013 14.8543 14.8543C15.4013 14.3073 16.1431 14 16.9167 14H34.4167C35.1902 14 35.9321 14.3073 36.4791 14.8543C37.026 15.4013 37.3333 16.1431 37.3333 16.9167V34.4167C37.3333 35.1902 37.026 35.9321 36.4791 36.4791C35.9321 37.026 35.1902 37.3333 34.4167 37.3333H16.9167C16.1431 37.3333 15.4013 37.026 14.8543 36.4791C14.3073 35.9321 14 35.1902 14 34.4167V16.9167Z" stroke="#333333" stroke-linecap="round" stroke-linejoin="round"/>
<path id="Vector_3" d="M20.6667 24V30.6667" stroke="#333333" stroke-linecap="round" stroke-linejoin="round"/>
<path id="Vector_4" d="M25.6667 30.6667V24" stroke="#333333" stroke-linecap="round" stroke-linejoin="round"/>
<path id="Vector_5" d="M30.6667 30.6667V26.6667C30.6667 25.9594 30.4033 25.2811 29.9345 24.781C29.4656 24.281 28.8297 24 28.1667 24C27.5036 24 26.8678 24.281 26.3989 24.781C25.9301 25.2811 25.6667 25.9594 25.6667 26.6667" stroke="#333333" stroke-linecap="round" stroke-linejoin="round"/>
</g>
</g>
</svg>
