<svg width="100" height="100" viewBox="0 0 100 100" fill="none" xmlns="http://www.w3.org/2000/svg">
<g id="Icons=Default">
<g id="Group">
<path id="Vector" opacity="0.918" fill-rule="evenodd" clip-rule="evenodd" d="M6.73828 4.00391C35.5795 3.97135 64.4207 4.00391 93.2617 4.10157C96.3986 4.69938 98.3191 6.55485 99.0234 9.66797C99.1537 30.5664 99.1537 51.4648 99.0234 72.3633C98.2953 75.5654 96.3096 77.4209 93.0664 77.9297C84.9938 78.0273 76.9209 78.06 68.8477 78.0273C68.8477 80.6314 68.8477 83.2357 68.8477 85.8398C70.932 85.8072 73.0154 85.8398 75.0977 85.9375C78.1129 87.1176 79.3172 89.2984 78.7109 92.4805C77.9248 94.6342 76.3949 95.8387 74.1211 96.0938C58.0404 96.224 41.9596 96.224 25.8789 96.0938C22.2783 95.5039 20.6834 93.3881 21.0938 89.7461C21.6523 87.7553 22.9219 86.4857 24.9023 85.9375C27.1148 85.8398 29.3285 85.8072 31.543 85.8398C31.543 83.2357 31.543 80.6314 31.543 78.0273C23.3396 78.06 15.1365 78.0273 6.93359 77.9297C3.27035 77.2613 1.21957 75.0803 0.78125 71.3867C0.651042 51.0742 0.651042 30.7617 0.78125 10.4492C1.32515 6.94389 3.31082 4.79545 6.73828 4.00391ZM7.32422 6.34766C35.6445 6.3151 63.9648 6.34766 92.2852 6.44532C94.7422 6.68881 96.207 8.02344 96.6797 10.4492C96.7773 26.7252 96.81 43.0012 96.7773 59.2773C65.5924 59.2773 34.4076 59.2773 3.22266 59.2773C3.1901 42.8059 3.22266 26.3346 3.32031 9.86328C4.02981 7.94766 5.36443 6.77578 7.32422 6.34766ZM3.22266 61.6211C34.4076 61.6211 65.5924 61.6211 96.7773 61.6211C96.8646 65.2127 96.767 68.7934 96.4844 72.3633C95.9416 73.9232 94.8674 74.9324 93.2617 75.3906C64.4205 75.5209 35.5795 75.5209 6.73828 75.3906C4.94791 74.9023 3.80859 73.7631 3.32031 71.9727C3.22268 68.5227 3.19012 65.0723 3.22266 61.6211ZM38.7695 67.2852C40.0666 67.3123 40.6199 67.9633 40.4297 69.2383C39.6393 70.2752 38.858 70.2752 38.0859 69.2383C37.843 68.3967 38.0709 67.7457 38.7695 67.2852ZM49.5117 67.2852C50.8088 67.3123 51.3621 67.9633 51.1719 69.2383C50.3814 70.2752 49.6002 70.2752 48.8281 69.2383C48.5852 68.3967 48.8131 67.7457 49.5117 67.2852ZM60.2539 67.2852C61.7389 67.3652 62.2271 68.0814 61.7188 69.4336C61.1838 70.0678 60.5652 70.1654 59.8633 69.7266C59.1035 68.7801 59.2338 67.9662 60.2539 67.2852ZM33.8867 78.0273C44.7592 78.0273 55.6314 78.0273 66.5039 78.0273C66.5039 80.6314 66.5039 83.2357 66.5039 85.8398C55.6314 85.8398 44.7592 85.8398 33.8867 85.8398C33.8867 83.2357 33.8867 80.6314 33.8867 78.0273ZM25.6836 88.1836C41.8947 88.151 58.1057 88.1836 74.3164 88.2812C76.3256 89.0998 76.8789 90.4996 75.9766 92.4805C75.5936 92.9951 75.1053 93.3533 74.5117 93.5547C58.1055 93.685 41.6992 93.685 25.293 93.5547C23.5063 92.6889 23.018 91.3543 23.8281 89.5508C24.3221 88.8896 24.9406 88.434 25.6836 88.1836Z" fill="#DAA41E"/>
</g>
<g id="Group_2">
<path id="Vector_2" opacity="0.898" fill-rule="evenodd" clip-rule="evenodd" d="M58.6914 17.4805C59.915 17.4538 60.4033 18.0397 60.1562 19.2383C56.6553 28.8965 53.042 38.4992 49.3164 48.0469C48.29 48.4 47.6389 48.0744 47.3633 47.0703C50.7688 37.5053 54.2518 27.9674 57.8125 18.457C58.0127 18.0299 58.3057 17.7044 58.6914 17.4805Z" fill="#DAA41E"/>
</g>
<g id="Group_3">
<path id="Vector_3" opacity="0.936" fill-rule="evenodd" clip-rule="evenodd" d="M81.1523 21.582C81.8301 21.46 82.3836 21.6553 82.8125 22.168C82.9428 29.2643 82.9428 36.3607 82.8125 43.457C82.6283 43.9363 82.2703 44.1316 81.7383 44.043C81.31 44.0769 80.9518 43.9467 80.6641 43.6523C80.5338 36.4908 80.5338 29.3295 80.6641 22.168C80.8682 21.9975 81.0309 21.8021 81.1523 21.582Z" fill="#DAA41E"/>
</g>
<g id="Group_4">
<path id="Vector_4" opacity="0.897" fill-rule="evenodd" clip-rule="evenodd" d="M33.8867 22.7539C34.4281 22.6992 34.9164 22.8295 35.3516 23.1445C36.5885 25.4883 37.8256 27.832 39.0625 30.1758C40.4637 27.8949 41.7658 25.5512 42.9688 23.1445C44.0416 22.4674 44.7904 22.7277 45.2148 23.9258C43.7797 26.959 42.2172 29.9213 40.5273 32.8125C42.1176 35.7654 43.6801 38.7277 45.2148 41.6992C44.9885 42.7912 44.3375 43.1492 43.2617 42.7734C41.8205 40.4449 40.4533 38.0687 39.1602 35.6445C37.8516 37.8982 36.582 40.1769 35.3516 42.4805C33.9557 43.2803 33.2395 42.8896 33.2031 41.3086C34.733 38.4765 36.2631 35.6445 37.793 32.8125C36.1885 30.0271 34.6586 27.1951 33.2031 24.3164C33.0623 23.6222 33.2902 23.1015 33.8867 22.7539Z" fill="#DAA41E"/>
</g>
<g id="Group_5">
<path id="Vector_5" opacity="0.884" fill-rule="evenodd" clip-rule="evenodd" d="M17.6758 22.9492C18.455 22.7766 19.0084 23.0369 19.3359 23.7305C19.3416 28.4953 19.4718 33.2478 19.7266 37.9883C21.3693 40.6186 23.5504 41.1721 26.2695 39.6484C26.9734 39.1195 27.4617 38.4359 27.7344 37.5977C27.7994 32.9752 27.8647 28.3529 27.9297 23.7305C28.4813 22.8461 29.1973 22.7158 30.0781 23.3398C30.3002 25.7031 30.3979 28.0793 30.3711 30.4687C30.392 33.048 30.2943 35.6195 30.0781 38.1836C29.0492 41.2709 26.9008 42.8334 23.6328 42.8711C19.7391 42.6881 17.5256 40.6699 16.9922 36.8164C16.862 32.5195 16.862 28.2227 16.9922 23.9258C17.0424 23.4557 17.2703 23.1303 17.6758 22.9492Z" fill="#DAA41E"/>
</g>
<g id="Group_6">
<path id="Vector_6" opacity="0.904" fill-rule="evenodd" clip-rule="evenodd" d="M63.1836 22.9492C63.8613 22.8271 64.4149 23.0225 64.8438 23.5352C64.8492 28.365 64.9795 33.1828 65.2344 37.9883C66.6342 40.343 68.6199 41.0266 71.1914 40.0391C71.94 39.5508 72.5586 38.9322 73.0469 38.1836C73.3018 33.3781 73.432 28.5603 73.4375 23.7305C73.8385 22.9898 74.4568 22.7621 75.293 23.0469C75.5275 23.2232 75.6904 23.451 75.7813 23.7305C75.9672 28.6213 75.902 33.5041 75.5859 38.3789C73.8953 42.2023 70.9982 43.6021 66.8945 42.5781C64.9914 41.9121 63.6568 40.6426 62.8906 38.7695C62.5703 33.6385 62.5053 28.4953 62.6953 23.3398C62.8897 23.2293 63.0524 23.099 63.1836 22.9492Z" fill="#DAA41E"/>
</g>
<g id="Group_7">
<path id="Vector_7" opacity="0.904" fill-rule="evenodd" clip-rule="evenodd" d="M37.9883 64.9414C40.8992 64.534 42.5918 65.7709 43.0664 68.6524C42.4537 71.7258 40.6307 72.8651 37.5977 72.0703C35.1482 70.3131 34.8229 68.2297 36.6211 65.8203C37.0895 65.5227 37.5451 65.2297 37.9883 64.9414ZM38.7695 67.2852C38.0709 67.7457 37.843 68.3967 38.0859 69.2383C38.858 70.2752 39.6393 70.2752 40.4297 69.2383C40.6199 67.9633 40.0666 67.3123 38.7695 67.2852Z" fill="#DAA41E"/>
</g>
<g id="Group_8">
<path id="Vector_8" opacity="0.904" fill-rule="evenodd" clip-rule="evenodd" d="M48.7305 64.9414C51.6412 64.5336 53.3338 65.7707 53.8086 68.6524C53.3736 71.4633 51.7459 72.6676 48.9258 72.2656C46.4244 71.1451 45.6756 69.2897 46.6797 66.6992C47.2344 65.9518 47.918 65.3658 48.7305 64.9414ZM49.5117 67.2852C48.8131 67.7457 48.5852 68.3967 48.8281 69.2383C49.6002 70.2752 50.3814 70.2752 51.1719 69.2383C51.3621 67.9633 50.8088 67.3123 49.5117 67.2852Z" fill="#DAA41E"/>
</g>
<g id="Group_9">
<path id="Vector_9" opacity="0.908" fill-rule="evenodd" clip-rule="evenodd" d="M59.4727 64.9414C63.3775 64.777 64.9074 66.5998 64.0625 70.4102C62.4133 72.5647 60.4275 72.9229 58.1055 71.4844C56.4963 69.4772 56.5613 67.524 58.3008 65.625C58.7357 65.4412 59.1264 65.2133 59.4727 64.9414ZM60.2539 67.2852C59.2338 67.9662 59.1035 68.7801 59.8633 69.7266C60.5652 70.1654 61.1838 70.0678 61.7188 69.4336C62.2272 68.0815 61.7389 67.3652 60.2539 67.2852Z" fill="#DAA41E"/>
</g>
</g>
</svg>
