<svg width="100" height="100" viewBox="0 0 100 100" fill="none" xmlns="http://www.w3.org/2000/svg">
<g id="Icons=web design" clip-path="url(#clip0_124_527)">
<g id="Group">
<path id="Vector" opacity="0.909" fill-rule="evenodd" clip-rule="evenodd" d="M99.8047 68.5547C99.8047 71.0285 99.8047 73.5027 99.8047 75.9766C98.6863 77.8769 96.9938 78.9184 94.7266 79.1016C94.4121 80.0449 94.0215 80.9566 93.5547 81.8359C95.3609 84.0457 95.5563 86.3895 94.1406 88.8672C93.1641 89.8437 92.1875 90.8203 91.2109 91.7969C88.7332 93.2125 86.3895 93.0172 84.1797 91.2109C83.3004 91.6777 82.3887 92.0684 81.4453 92.3828C80.891 96.3867 78.6125 98.0793 74.6094 97.4609C70.6188 98.0945 68.3402 96.4016 67.7734 92.3828C66.8941 91.916 65.9824 91.5254 65.0391 91.2109C63.1504 92.8141 61.0672 93.1394 58.7891 92.1875C56.9883 90.6504 55.491 88.8926 54.2969 86.9141C53.8875 84.9328 54.3434 83.175 55.6641 81.6406C55.2719 80.7226 54.8812 79.8109 54.4922 78.9062C48.6328 78.7762 42.7734 78.6457 36.9141 78.5156C35.3516 77.2137 35.3516 75.9113 36.9141 74.6094C41.0785 74.4141 45.2453 74.3488 49.4141 74.4141C49.1688 71.968 49.4941 69.6242 50.3906 67.3828C51.5816 66.4203 52.9488 65.8344 54.4922 65.625C54.8812 64.7203 55.2719 63.8086 55.6641 62.8906C54.0664 60.9527 53.741 58.8043 54.6875 56.4453C56.0547 55.0781 57.4219 53.7109 58.7891 52.3437C59.5402 52.0281 60.3215 51.8328 61.1328 51.7578C62.7582 52.1812 64.3207 52.6367 65.8203 53.125C66.5434 52.798 67.2594 52.4723 67.9688 52.1484C68.341 48.1949 70.4895 46.5023 74.4141 47.0703C78.4395 46.4758 80.7832 48.1684 81.4453 52.1484C82.0965 52.4738 82.7473 52.7996 83.3984 53.125C84.9875 52.4715 86.6801 52.0156 88.4766 51.7578C88.4766 45.2473 88.4766 38.737 88.4766 32.2266C60.3516 32.2266 32.2266 32.2266 4.10156 32.2266C4.03648 44.8574 4.10156 57.4875 4.29688 70.1172C4.8566 72.1086 6.09355 73.4758 8.00781 74.2187C12.5651 74.3488 17.1224 74.4793 21.6797 74.6094C23.1904 75.8785 23.1904 77.1805 21.6797 78.5156C16.862 78.7762 12.0443 78.7762 7.22656 78.5156C3.35124 77.3102 0.877285 74.7711 -0.195312 70.8984C-0.195312 50.4559 -0.195312 30.013 -0.195312 9.57031C0.812367 6.06039 3.02591 3.65154 6.44531 2.34375C33.0078 2.08333 59.5703 2.08333 86.1328 2.34375C89.5531 3.81065 91.7016 6.34973 92.5781 9.96094C92.7082 24.8047 92.8387 39.6484 92.9688 54.4922C95.5855 57.0644 95.7809 59.7988 93.5547 62.6953C94.0215 63.5746 94.4121 64.4863 94.7266 65.4297C96.8895 65.791 98.582 66.8324 99.8047 68.5547ZM7.61719 6.44531C33.3988 6.3802 59.1801 6.44531 84.9609 6.64063C86.777 7.59965 87.884 9.09703 88.2812 11.1328C88.4766 16.7303 88.5418 22.3292 88.4766 27.9297C60.3516 27.9297 32.2266 27.9297 4.10156 27.9297C4.03648 22.199 4.1016 16.4699 4.29688 10.7422C4.90344 8.90152 6.01023 7.46926 7.61719 6.44531ZM17.3828 14.6484C19.602 14.8453 20.5786 16.0172 20.3125 18.1641C18.2271 20.3619 16.5995 20.0364 15.4297 17.1875C15.7299 16.0444 16.381 15.1981 17.3828 14.6484ZM34.5703 14.6484C36.3382 14.7233 37.3798 15.6348 37.6953 17.3828C35.9079 20.5444 34.2151 20.4793 32.6172 17.1875C32.9231 16.0399 33.5741 15.1936 34.5703 14.6484ZM57.6172 14.6484C63.8684 14.5834 70.1184 14.6485 76.3672 14.8438C78.9715 16.4062 78.9715 17.9688 76.3672 19.5312C70.1172 19.7917 63.8672 19.7917 57.6172 19.5312C55.5594 17.9053 55.5594 16.2777 57.6172 14.6484ZM72.4609 51.3672C73.8934 51.3672 75.3254 51.3672 76.7578 51.3672C76.6934 52.5461 76.7586 53.718 76.9531 54.8828C77.2785 55.2082 77.6043 55.534 77.9297 55.8594C80.273 56.5434 82.552 57.3898 84.7656 58.3984C86.0117 57.9394 87.0535 57.1582 87.8906 56.0547C88.8672 57.0312 89.8438 58.0078 90.8203 58.9844C89.6457 59.8305 88.8645 60.9371 88.4766 62.3047C89.5598 64.6016 90.5363 66.9453 91.4062 69.3359C91.6016 69.5312 91.7969 69.7266 91.9922 69.9219C93.157 70.1164 94.3289 70.1816 95.5078 70.1172C95.5078 71.5496 95.5078 72.9816 95.5078 74.4141C94.3289 74.3496 93.157 74.4148 91.9922 74.6094C91.7969 74.8047 91.6016 75 91.4062 75.1953C90.7207 77.3848 89.809 79.468 88.6719 81.4453C88.4734 83.1316 89.1242 84.4336 90.625 85.3516C90.1992 86.6348 89.3527 87.6766 88.0859 88.4766C87.1258 87.4453 86.0188 86.6641 84.7656 86.1328C82.3953 87.1535 79.9867 88.1301 77.5391 89.0625C77.3438 89.2578 77.1484 89.4531 76.9531 89.6484C76.7586 90.8133 76.6934 91.9852 76.7578 93.1641C75.3254 93.1641 73.8934 93.1641 72.4609 93.1641C72.5254 91.9852 72.4602 90.8133 72.2656 89.6484C70.0074 88.5457 67.7289 87.4391 65.4297 86.3281C63.6406 86.1496 62.2734 86.8656 61.3281 88.4766C60.3516 87.5 59.375 86.5234 58.3984 85.5469C59.502 84.7098 60.2832 83.668 60.7422 82.4219C59.7336 80.2082 58.8871 77.9293 58.2031 75.5859C57.8777 75.2605 57.552 74.9348 57.2266 74.6094C56.0617 74.4148 54.8898 74.3496 53.7109 74.4141C53.7109 72.9816 53.7109 71.5496 53.7109 70.1172C54.8898 70.1816 56.0617 70.1164 57.2266 69.9219C57.6824 69.7266 58.0078 69.4012 58.2031 68.9453C58.8312 66.6473 59.6777 64.434 60.7422 62.3047C60.3543 60.9371 59.573 59.8305 58.3984 58.9844C59.2512 58.0664 60.1625 57.2199 61.1328 56.4453C62.0008 57.5098 63.1074 58.1605 64.4531 58.3984C66.6668 57.3898 68.9457 56.5434 71.2891 55.8594C71.6145 55.534 71.9402 55.2082 72.2656 54.8828C72.4602 53.718 72.5254 52.5461 72.4609 51.3672ZM74.0234 64.2578C80.9902 65.3031 83.5293 69.2094 81.6406 75.9766C77.6355 81.1805 73.2082 81.5711 68.3594 77.1484C65.7645 72.6762 66.4805 68.8352 70.5078 65.625C71.6637 64.9984 72.8355 64.5426 74.0234 64.2578Z" fill="#DAA41E"/>
</g>
<g id="Group_2">
<path id="Vector_2" opacity="0.892" fill-rule="evenodd" clip-rule="evenodd" d="M16.6016 10.3516C22.6904 10.2866 25.3597 13.2814 24.6094 19.3359C22.1902 24.048 18.6094 25.1547 13.8672 22.6562C10.93 19.8195 10.4743 16.6294 12.5 13.0859C13.671 11.8212 15.0382 10.9097 16.6016 10.3516ZM17.3828 14.6484C16.381 15.1981 15.7299 16.0444 15.4297 17.1875C16.5995 20.0364 18.2271 20.3619 20.3125 18.1641C20.5786 16.0172 19.602 14.8453 17.3828 14.6484Z" fill="#DAA41E"/>
</g>
<g id="Group_3">
<path id="Vector_3" opacity="0.894" fill-rule="evenodd" clip-rule="evenodd" d="M33.7891 10.3516C40.768 10.753 43.177 14.2686 41.0156 20.8984C37.3562 24.8939 33.5801 25.0241 29.6875 21.2891C27.2452 16.1783 28.6124 12.5324 33.7891 10.3516ZM34.5703 14.6484C33.5741 15.1936 32.9231 16.0399 32.6172 17.1875C34.2151 20.4793 35.9078 20.5444 37.6953 17.3828C37.3798 15.6348 36.3382 14.7233 34.5703 14.6484Z" fill="#DAA41E"/>
</g>
<g id="Group_4">
<path id="Vector_4" opacity="0.883" fill-rule="evenodd" clip-rule="evenodd" d="M30.2734 43.1641C31.1941 43.1004 32.1056 43.1653 33.0078 43.3594C33.4269 43.8723 33.6873 44.4582 33.7891 45.1172C32.4361 51.2457 30.8736 57.3004 29.1016 63.2813C26.1719 63.9973 25.0651 62.8907 25.7813 59.961C26.9531 55.0129 28.125 50.0653 29.2969 45.1172C29.4399 44.3547 29.7654 43.7039 30.2734 43.1641Z" fill="#DAA41E"/>
</g>
<g id="Group_5">
<path id="Vector_5" opacity="0.862" fill-rule="evenodd" clip-rule="evenodd" d="M18.1641 44.3359C20.6136 44.6773 21.3297 45.9793 20.3125 48.2422C18.5973 49.7609 17.0999 51.4535 15.8203 53.3203C17.3743 55.3305 19.002 57.2836 20.7031 59.1797C20.7906 61.9051 19.5536 62.7516 16.9922 61.7188C15.1042 59.5703 13.2161 57.4219 11.3281 55.2734C10.5469 53.9715 10.5469 52.6691 11.3281 51.3672C13.4238 48.816 15.7025 46.4723 18.1641 44.3359Z" fill="#DAA41E"/>
</g>
<g id="Group_6">
<path id="Vector_6" opacity="0.875" fill-rule="evenodd" clip-rule="evenodd" d="M40.0391 44.3359C41.4602 44.4289 42.5668 45.0797 43.3594 46.2891C44.9219 48.1121 46.4844 49.9348 48.0469 51.7578C48.5394 53.5668 48.1488 55.1293 46.875 56.4453C45.1039 58.0855 43.4762 59.8434 41.9922 61.7188C39.3496 62.5949 38.2429 61.6184 38.6719 58.7891C40.1559 56.9137 41.7836 55.1559 43.5547 53.5156C41.9269 51.6277 40.2996 49.7395 38.6719 47.8516C38.1503 46.2469 38.6061 45.075 40.0391 44.3359Z" fill="#DAA41E"/>
</g>
<g id="Group_7">
<path id="Vector_7" opacity="0.891" fill-rule="evenodd" clip-rule="evenodd" d="M73.2422 59.9609C83.4262 60.5727 87.7883 65.9109 86.3281 75.9766C83.4414 82.9215 78.2984 85.591 70.8984 83.9844C64.0746 81.2098 61.4051 76.1969 62.8906 68.9453C64.5203 63.8078 67.9711 60.8129 73.2422 59.9609ZM74.0234 64.2578C72.8355 64.5426 71.6637 64.9984 70.5078 65.625C66.4805 68.8352 65.7645 72.6762 68.3594 77.1484C73.2082 81.5711 77.6355 81.1805 81.6406 75.9766C83.5293 69.2094 80.9902 65.3031 74.0234 64.2578Z" fill="#DAA41E"/>
</g>
<g id="Group_8">
<path id="Vector_8" opacity="0.803" fill-rule="evenodd" clip-rule="evenodd" d="M28.3203 74.414C31.4696 74.3094 32.2508 75.6117 30.6641 78.3203C28.2021 79.048 27.0954 78.1367 27.3437 75.5859C27.752 75.2449 28.0775 74.8543 28.3203 74.414Z" fill="#DAA41E"/>
</g>
</g>
<defs>
<clipPath id="clip0_124_527">
<rect width="100" height="100" fill="white"/>
</clipPath>
</defs>
</svg>
