<svg width="100" height="100" viewBox="0 0 100 100" fill="none" xmlns="http://www.w3.org/2000/svg">
<g id="Icons=ui-design 1">
<g id="Group">
<path id="Vector" opacity="0.971" fill-rule="evenodd" clip-rule="evenodd" d="M27.832 3.02735C40.7314 2.93241 53.6221 3.03006 66.5039 3.32032C69.259 4.31755 70.9844 6.23813 71.6797 9.08204C71.81 10.9701 71.81 12.8581 71.6797 14.7461C71.582 15.1042 71.3541 15.332 70.9961 15.4297C70.2648 15.611 69.5812 15.5134 68.9453 15.1367C68.7687 13.1131 68.5084 11.0949 68.1641 9.08204C67.5168 7.78346 66.5076 6.90456 65.1367 6.44532C53.2937 6.12426 41.4449 6.05917 29.5898 6.25001C26.8912 6.60485 25.3613 8.13481 25 10.8398C24.935 12.1419 24.8697 13.444 24.8047 14.7461C24.707 15.1042 24.4791 15.332 24.1211 15.4297C23.6002 15.5599 23.0795 15.5599 22.5586 15.4297C22.2006 15.332 21.9727 15.1042 21.875 14.7461C21.7447 12.8581 21.7447 10.9701 21.875 9.08204C22.7244 5.92161 24.7102 3.90337 27.832 3.02735Z" fill="#DAA41E"/>
</g>
<g id="Group_2">
<path id="Vector_2" opacity="0.976" fill-rule="evenodd" clip-rule="evenodd" d="M41.3086 9.27734C44.9551 9.2448 48.6008 9.27736 52.2461 9.37499C52.6041 9.47265 52.832 9.70052 52.9297 10.0586C53.06 10.5794 53.06 11.1002 52.9297 11.6211C52.832 11.9792 52.6041 12.207 52.2461 12.3047C48.6002 12.4349 44.9545 12.4349 41.3086 12.3047C40.7195 12.0061 40.4592 11.5178 40.5273 10.8398C40.4848 10.1434 40.7453 9.62255 41.3086 9.27734Z" fill="#DAA41E"/>
</g>
<g id="Group_3">
<path id="Vector_3" opacity="0.937" fill-rule="evenodd" clip-rule="evenodd" d="M25.0977 18.6524C34.7965 17.8864 42.1857 21.5973 47.2656 29.7852C50.4822 36.3065 50.7426 42.9471 48.0469 49.7071C43.2322 58.9684 35.5824 63.1676 25.0977 62.3047C14.5165 60.3172 8.23392 54.0348 6.25 43.4571C5.38859 33.7541 9.06697 26.3649 17.2852 21.2891C19.7871 20.0321 22.3912 19.1531 25.0977 18.6524ZM27.832 21.7774C36.0467 22.1553 41.8734 26.0615 45.3125 33.4961C47.7811 40.3633 46.8045 46.6783 42.3828 52.4414C40.7506 49.4258 38.2439 47.5703 34.8633 46.875C30.3061 46.7448 25.7486 46.7448 21.1914 46.875C17.8084 47.5711 15.3019 49.4266 13.6719 52.4414C9.25 46.6774 8.27343 40.3623 10.7422 33.4961C14.1409 26.2217 19.8375 22.3155 27.832 21.7774ZM26.6602 31.3477C29.4885 30.9215 31.409 32.0283 32.4219 34.668C32.884 37.4231 31.8098 39.2785 29.1992 40.2344C26.4441 40.6965 24.5887 39.6223 23.6328 37.0117C23.2092 34.3426 24.2184 32.4545 26.6602 31.3477ZM23.3398 49.9024C27.0568 49.8293 30.7678 49.927 34.4727 50.1953C36.9521 50.8524 38.71 52.3496 39.7461 54.6875C39.6287 55.001 39.4334 55.2614 39.1602 55.4688C32.2916 59.967 25.2603 60.2274 18.0664 56.25C17.3506 55.8621 16.7646 55.3412 16.3086 54.6875C17.7367 51.727 20.0805 50.1319 23.3398 49.9024Z" fill="#DAA41E"/>
</g>
<g id="Group_4">
<path id="Vector_4" opacity="0.968" fill-rule="evenodd" clip-rule="evenodd" d="M60.8398 18.6523C68.1318 18.6198 75.4234 18.6523 82.7148 18.75C86.4137 19.9912 87.9438 22.5629 87.3047 26.4648C86.6861 28.9063 85.1562 30.4361 82.7148 31.0547C75.4232 31.185 68.1314 31.185 60.8398 31.0547C57.141 29.8135 55.6109 27.2418 56.25 23.3398C56.9041 20.8955 58.434 19.3331 60.8398 18.6523ZM62.4023 21.7773C68.6527 21.7447 74.9027 21.7773 81.1523 21.875C83.4654 22.2357 84.4094 23.5703 83.9844 25.8789C83.4764 27.1588 82.5324 27.8424 81.1523 27.9297C74.9023 28.06 68.6523 28.06 62.4023 27.9297C59.6984 27.3072 58.8848 25.7121 59.9609 23.1445C60.6375 22.4004 61.4514 21.9445 62.4023 21.7773Z" fill="#DAA41E"/>
</g>
<g id="Group_5">
<path id="Vector_5" opacity="0.961" fill-rule="evenodd" clip-rule="evenodd" d="M69.4336 34.2773C69.9584 34.2453 70.4793 34.2779 70.9961 34.375C71.3541 34.4727 71.582 34.7006 71.6797 35.0586C71.7447 37.142 71.81 39.2252 71.875 41.3086C71.9727 40.9506 72.2006 40.7227 72.5586 40.625C73.9908 40.4947 75.4232 40.4947 76.8555 40.625C77.158 40.8621 77.3857 41.1551 77.5391 41.5039C77.8451 42.8711 78.1381 44.2383 78.418 45.6055C79.5178 45.9106 80.592 46.3012 81.6406 46.7773C82.793 46.1195 83.9322 45.4359 85.0586 44.7266C85.7352 44.567 86.3863 44.6322 87.0117 44.9219C88.2812 46.1914 89.5508 47.4609 90.8203 48.7305C91.0021 49.1131 91.1648 49.5037 91.3086 49.9023C90.5535 51.3147 89.7723 52.7145 88.9648 54.1016C89.3881 55.2729 89.909 56.3797 90.5273 57.4219C91.9168 57.6553 93.284 57.9809 94.6289 58.3984C94.7916 58.5611 94.9545 58.724 95.1172 58.8867C95.1498 60.026 95.1822 61.1654 95.2148 62.3047C95.2398 63.5943 95.1422 64.8639 94.9219 66.1133C94.6932 66.3854 94.4002 66.5482 94.043 66.6016C92.7969 66.8643 91.56 67.1572 90.332 67.4805C89.8504 68.5418 89.3947 69.616 88.9648 70.7031C89.8668 72.0301 90.648 73.4297 91.3086 74.9023C91.1648 75.301 91.0021 75.6916 90.8203 76.0742C89.4797 77.4801 88.0801 78.8148 86.6211 80.0781C86.1002 80.2084 85.5795 80.2084 85.0586 80.0781C83.9322 79.3688 82.793 78.6852 81.6406 78.0273C80.592 78.5035 79.5178 78.8941 78.418 79.1992C78.1381 80.5664 77.8451 81.9336 77.5391 83.3008C77.3857 83.6496 77.158 83.9426 76.8555 84.1797C75.4232 84.31 73.9908 84.31 72.5586 84.1797C72.2006 84.082 71.9727 83.8541 71.875 83.4961C71.81 85.9049 71.7447 88.3139 71.6797 90.7227C70.8658 93.8803 68.8803 95.8658 65.7227 96.6797C53.0924 96.81 40.4623 96.81 27.832 96.6797C24.6744 95.8658 22.6889 93.8803 21.875 90.7227C21.7447 82.5846 21.7447 74.4467 21.875 66.3086C22.1736 65.7195 22.6619 65.4592 23.3398 65.5273C24.0178 65.4592 24.5061 65.7195 24.8047 66.3086C24.8697 73.8607 24.935 81.4127 25 88.9648C25.358 91.6666 26.8881 93.1967 29.5898 93.5547C41.0482 93.685 52.5064 93.685 63.9648 93.5547C66.6666 93.1967 68.1967 91.6666 68.5547 88.9648C68.6197 70.9961 68.685 53.0273 68.75 35.0586C68.8848 34.6973 69.1125 34.4367 69.4336 34.2773ZM71.7773 42.8711C71.9367 43.1922 72.1973 43.4199 72.5586 43.5547C73.2719 43.6522 73.9879 43.6846 74.707 43.6523C74.8465 44.9033 75.0744 46.1404 75.3906 47.3633C75.5439 47.7121 75.7717 48.0051 76.0742 48.2422C78.0082 48.884 79.8961 49.6326 81.7383 50.4883C83.1225 49.9848 84.392 49.2686 85.5469 48.3398C86.1654 48.9584 86.7838 49.5768 87.4023 50.1953C86.6943 51.2529 86.0107 52.3272 85.3516 53.418C85.2213 53.8086 85.2213 54.1992 85.3516 54.5898C86.2617 56.3787 87.0754 58.2016 87.793 60.0586C89.1215 60.5371 90.4887 60.8627 91.8945 61.0352C91.8945 61.9467 91.8945 62.858 91.8945 63.7695C90.4887 63.942 89.1215 64.2676 87.793 64.7461C87.0754 66.6031 86.2617 68.426 85.3516 70.2148C85.2213 70.6055 85.2213 70.9961 85.3516 71.3867C86.0107 72.4775 86.6943 73.5518 87.4023 74.6094C86.7838 75.2279 86.1654 75.8463 85.5469 76.4648C84.392 75.5361 83.1225 74.8199 81.7383 74.3164C79.8961 75.1721 78.0082 75.9207 76.0742 76.5625C75.7717 76.7996 75.5439 77.0926 75.3906 77.4414C75.0744 78.6643 74.8465 79.9014 74.707 81.1523C73.9879 81.1201 73.2719 81.1525 72.5586 81.25C72.2006 81.3477 71.9727 81.5756 71.875 81.9336C71.7447 73.4701 71.7447 65.0064 71.875 56.543C75.241 55.9148 77.6498 57.1518 79.1016 60.2539C80.0334 63.8904 78.8289 66.5272 75.4883 68.1641C74.6301 69.3533 74.8254 70.3299 76.0742 71.0938C76.6127 71.2078 77.1334 71.1426 77.6367 70.8984C82.6652 67.66 83.9998 63.2654 81.6406 57.7148C79.3594 54.0844 76.0717 52.5219 71.7773 53.0273C71.7773 49.642 71.7773 46.2564 71.7773 42.8711Z" fill="#DAA41E"/>
</g>
<g id="Group_6">
<path id="Vector_6" opacity="0.889" fill-rule="evenodd" clip-rule="evenodd" d="M13.3789 68.2617C15.1768 68.2043 15.8604 69.0508 15.4297 70.8008C14.5295 72.0187 13.553 72.0838 12.5 70.9961C12.1465 69.8279 12.4395 68.9164 13.3789 68.2617Z" fill="#DAA41E"/>
</g>
<g id="Group_7">
<path id="Vector_7" opacity="0.99" fill-rule="evenodd" clip-rule="evenodd" d="M31.9336 68.6524C41.8297 68.6198 51.7254 68.6524 61.6211 68.75C62.2102 69.0487 62.4705 69.5369 62.4023 70.2149C62.4705 70.8928 62.2102 71.3811 61.6211 71.6797C51.7252 71.81 41.8295 71.81 31.9336 71.6797C31.3445 71.3811 31.0842 70.8928 31.1523 70.2149C31.1098 69.5184 31.3703 68.9977 31.9336 68.6524Z" fill="#DAA41E"/>
</g>
<g id="Group_8">
<path id="Vector_8" opacity="0.889" fill-rule="evenodd" clip-rule="evenodd" d="M13.3789 74.5117C15.1768 74.4543 15.8604 75.3008 15.4297 77.0508C14.5295 78.2687 13.553 78.3338 12.5 77.2461C12.1465 76.0779 12.4395 75.1664 13.3789 74.5117Z" fill="#DAA41E"/>
</g>
<g id="Group_9">
<path id="Vector_9" opacity="0.981" fill-rule="evenodd" clip-rule="evenodd" d="M31.9336 74.9024C36.6215 74.8698 41.309 74.9024 45.9961 75C46.3541 75.0977 46.582 75.3256 46.6797 75.6836C46.81 76.2045 46.81 76.7252 46.6797 77.2461C46.582 77.6041 46.3541 77.8321 45.9961 77.9297C41.3086 78.06 36.6211 78.06 31.9336 77.9297C31.3445 77.6311 31.0842 77.1428 31.1523 76.4649C31.1098 75.7684 31.3703 75.2477 31.9336 74.9024Z" fill="#DAA41E"/>
</g>
<g id="Group_10">
<path id="Vector_10" opacity="0.889" fill-rule="evenodd" clip-rule="evenodd" d="M13.3789 80.7617C15.1768 80.7043 15.8604 81.5508 15.4297 83.3008C14.5295 84.5187 13.553 84.5838 12.5 83.4961C12.1465 82.3279 12.4395 81.4164 13.3789 80.7617Z" fill="#DAA41E"/>
</g>
<g id="Group_11">
<path id="Vector_11" opacity="0.988" fill-rule="evenodd" clip-rule="evenodd" d="M31.9336 81.1524C39.7463 81.1198 47.5588 81.1524 55.3711 81.25C55.9602 81.5487 56.2205 82.0369 56.1523 82.7149C56.2205 83.3928 55.9602 83.8811 55.3711 84.1797C47.5586 84.31 39.7461 84.31 31.9336 84.1797C31.3445 83.8811 31.0842 83.3928 31.1523 82.7149C31.1098 82.0184 31.3703 81.4977 31.9336 81.1524Z" fill="#DAA41E"/>
</g>
</g>
</svg>
