<svg width="100" height="100" viewBox="0 0 100 100" fill="none" xmlns="http://www.w3.org/2000/svg">
<g id="Icons=interaction 2">
<g id="Group">
<path id="Vector" opacity="0.95" fill-rule="evenodd" clip-rule="evenodd" d="M8.49609 2.83203C33.6914 2.79948 58.8867 2.83203 84.082 2.92969C86.918 3.35709 88.7084 4.95215 89.4531 7.71485C89.5182 22.6236 89.5834 37.5326 89.6484 52.4414C96.5598 60.2373 98.5129 69.1564 95.5078 79.1992C91.5678 89.3883 84.1783 95.215 73.3398 96.6797C68.9713 97.0787 64.7397 96.4928 60.6445 94.9219C54.7348 92.8 48.8104 90.7166 42.8711 88.6719C38.967 86.0811 38.023 82.6631 40.0391 78.418C41.4879 76.2936 43.5061 75.1867 46.0938 75.0977C48.0369 75.4135 49.9574 75.7715 51.8555 76.1719C43.8748 68.2562 35.9646 60.2811 28.125 52.2461C26.0018 47.8777 27.0109 44.4598 31.1523 41.9922C33.5631 41.1707 35.8416 41.4311 37.9883 42.7734C41.1459 45.9311 44.3033 49.0885 47.4609 52.2461C48.7533 49.3057 50.9994 47.8084 54.1992 47.7539C54.6992 42.7939 57.4336 40.4828 62.4023 40.8203C63.0516 41.0045 63.7025 41.1672 64.3555 41.3086C64.8596 39.3602 66.0314 37.9605 67.8711 37.1094C70.416 36.1121 72.8248 36.3725 75.0977 37.8906C78.5807 41.3736 82.0639 44.8568 85.5469 48.3398C85.6445 38.8348 85.6772 29.3297 85.6445 19.8242C59.3424 19.8242 33.0404 19.8242 6.73828 19.8242C6.64324 36.4981 6.7409 53.1646 7.03125 69.8242C7.42 70.6035 8.0385 71.0918 8.88672 71.2891C16.3086 71.3541 23.7305 71.4193 31.1523 71.4844C32.6316 72.5693 32.6969 73.7412 31.3477 75C31.0873 75.065 30.8268 75.1303 30.5664 75.1953C23.3398 75.3256 16.1133 75.3256 8.88672 75.1953C6.40731 74.9914 4.61695 73.7871 3.51563 71.582C3.35506 71.1352 3.22484 70.6793 3.125 70.2148C2.99479 49.3814 2.99479 28.5482 3.125 7.71485C3.9033 4.94994 5.69367 3.32233 8.49609 2.83203ZM8.69141 6.73828C33.7566 6.70573 58.8217 6.73828 83.8867 6.83594C84.624 7.1176 85.1773 7.60588 85.5469 8.30078C85.8209 10.8949 85.9186 13.499 85.8398 16.1133C59.4727 16.1133 33.1055 16.1133 6.73828 16.1133C6.65949 13.499 6.75715 10.8949 7.03125 8.30078C7.43629 7.60217 7.98969 7.08135 8.69141 6.73828ZM70.2148 40.332C71.1293 40.3004 71.9756 40.5283 72.7539 41.0156C78.0004 46.1969 83.1762 51.4377 88.2813 56.7383C94.2795 65.3107 94.6051 74.0998 89.2578 83.1055C82.8598 91.4889 74.4939 94.4512 64.1602 91.9922C57.7799 89.7787 51.3998 87.565 45.0195 85.3516C43.3064 84.5486 42.6229 83.2141 42.9688 81.3477C43.9391 79.2648 45.5342 78.5813 47.7539 79.2969C51.2438 80.2344 54.7594 81.0482 58.3008 81.7383C60.1234 81.6412 60.742 80.7297 60.1563 79.0039C50.6564 69.3088 41.0861 59.6734 31.4453 50.0977C30.6295 48.5191 30.8572 47.1193 32.1289 45.8984C33.3008 45.2475 34.4727 45.2475 35.6445 45.8984C43.392 53.6459 51.1393 61.3932 58.8867 69.1406C60.1729 69.7348 61.182 69.4418 61.9141 68.2617C62.0684 67.6496 62.0033 67.0637 61.7188 66.5039C58.3984 63.1836 55.0781 59.8633 51.7578 56.543C50.4324 53.8787 51.2137 52.1859 54.1016 51.4648C54.6063 51.5828 55.0945 51.7455 55.5664 51.9531C59.2719 55.4631 62.9176 59.0439 66.5039 62.6953C67.7293 63.2748 68.6734 62.9818 69.3359 61.8164C69.4955 61.1398 69.4303 60.4887 69.1406 59.8633C65.625 56.3477 62.1094 52.832 58.5938 49.3164C57.635 47.3102 58.1232 45.7803 60.0586 44.7266C61.0234 44.5232 61.9348 44.6535 62.793 45.1172C66.3086 48.6328 69.8242 52.1484 73.3398 55.6641C75.0424 56.5182 76.149 56.0299 76.6602 54.1992C76.5324 53.8838 76.4348 53.5582 76.3672 53.2227C73.7687 50.4287 71.0994 47.6943 68.3594 45.0195C67.4051 42.8273 68.0236 41.2648 70.2148 40.332Z" fill="#DAA41E"/>
</g>
<g id="Group_2">
<path id="Vector_2" opacity="0.873" fill-rule="evenodd" clip-rule="evenodd" d="M13.3789 9.47266C15.7334 9.53316 16.417 10.6399 15.4297 12.793C13.9438 13.7298 12.837 13.4043 12.1094 11.8164C11.975 10.717 12.3982 9.93578 13.3789 9.47266Z" fill="#DAA41E"/>
</g>
<g id="Group_3">
<path id="Vector_3" opacity="0.884" fill-rule="evenodd" clip-rule="evenodd" d="M20.0195 9.47268C21.9795 9.38124 22.7934 10.2927 22.4609 12.2071C21.6883 13.4295 20.6793 13.6574 19.4336 12.8907C18.5226 11.549 18.7179 10.4097 20.0195 9.47268Z" fill="#DAA41E"/>
</g>
<g id="Group_4">
<path id="Vector_4" opacity="0.882" fill-rule="evenodd" clip-rule="evenodd" d="M26.8555 9.47266C29.0281 9.52217 29.7441 10.5638 29.0039 12.5977C27.8652 13.6726 26.791 13.6075 25.7812 12.4023C25.2662 11.0912 25.6242 10.1146 26.8555 9.47266Z" fill="#DAA41E"/>
</g>
<g id="Group_5">
<path id="Vector_5" opacity="0.933" fill-rule="evenodd" clip-rule="evenodd" d="M39.9414 9.47266C53.0275 9.4401 66.1135 9.47266 79.1992 9.57032C80.4553 10.1633 80.8133 11.1073 80.2734 12.4023C79.9537 12.8536 79.5305 13.1465 79.0039 13.2813C66.0482 13.4115 53.0924 13.4115 40.1367 13.2813C38.7918 12.7527 38.3686 11.8087 38.8672 10.4492C39.2051 10.0778 39.5631 9.75223 39.9414 9.47266Z" fill="#DAA41E"/>
</g>
<g id="Group_6">
<path id="Vector_6" opacity="0.912" fill-rule="evenodd" clip-rule="evenodd" d="M32.7148 30.3711C34.0555 30.2492 34.8693 30.8351 35.1563 32.1289C35.2865 33.5611 35.2865 34.9935 35.1563 36.4258C34.8395 37.8465 33.9605 38.3998 32.5195 38.0859C32.0313 37.858 31.6732 37.5 31.4453 37.0117C31.315 35.1889 31.315 33.3658 31.4453 31.543C31.7371 30.9934 32.1602 30.6027 32.7148 30.3711Z" fill="#DAA41E"/>
</g>
<g id="Group_7">
<path id="Vector_7" opacity="0.908" fill-rule="evenodd" clip-rule="evenodd" d="M17.4805 31.1524C18.3338 31.0397 19.1151 31.2026 19.8242 31.6406C22.0703 33.8867 24.3164 36.1328 26.5625 38.3789C27.6355 41.0821 26.7566 42.091 23.9258 41.4063C21.5494 39.0299 19.1732 36.6537 16.7969 34.2774C16.2417 33.0346 16.4695 31.993 17.4805 31.1524Z" fill="#DAA41E"/>
</g>
<g id="Group_8">
<path id="Vector_8" opacity="0.91" fill-rule="evenodd" clip-rule="evenodd" d="M17.0898 45.9961C18.8489 45.9637 20.6066 45.9961 22.3633 46.0938C23.6809 46.9803 23.8762 48.0871 22.9492 49.4141C22.6393 49.5824 22.3137 49.7127 21.9727 49.8047C20.2 49.983 18.4421 49.918 16.6992 49.6094C15.3312 48.2191 15.4614 47.0148 17.0898 45.9961Z" fill="#DAA41E"/>
</g>
<g id="Group_9">
<path id="Vector_9" opacity="0.879" fill-rule="evenodd" clip-rule="evenodd" d="M36.6211 71.3867C38.5691 71.1539 39.448 72.0004 39.2578 73.9258C38.2266 75.4871 37.0547 75.6174 35.7422 74.3164C35.2486 73.0928 35.5416 72.1162 36.6211 71.3867Z" fill="#DAA41E"/>
</g>
</g>
</svg>
