<svg width="107" height="53" viewBox="0 0 107 53" fill="none" xmlns="http://www.w3.org/2000/svg">
<path d="M18.672 26.768C20.272 26.768 21.6107 26.8373 22.688 26.976C23.7653 27.1147 24.624 27.3333 25.264 27.632C25.904 27.92 26.3627 28.2933 26.64 28.752C26.9173 29.2 27.056 29.7333 27.056 30.352C27.056 31.024 26.8373 31.6213 26.4 32.144C25.9733 32.656 25.3707 33.088 24.592 33.44C23.824 33.7813 22.928 34.0373 21.904 34.208C20.8907 34.3893 19.7973 34.48 18.624 34.48C17.3227 34.48 16.1387 34.384 15.072 34.192C14.0053 34 13.0987 33.7067 12.352 33.312C11.6053 32.9067 11.0453 32.3893 10.672 31.76C10.3093 31.1307 10.1653 30.3787 10.24 29.504L17.072 29.04C16.9867 29.36 17.008 29.6267 17.136 29.84C17.2747 30.0533 17.488 30.2133 17.776 30.32C18.064 30.4267 18.384 30.48 18.736 30.48C18.9493 30.48 19.1413 30.464 19.312 30.432C19.4933 30.4 19.6533 30.352 19.792 30.288C19.9307 30.224 20.0373 30.144 20.112 30.048C20.1867 29.9413 20.224 29.824 20.224 29.696C20.224 29.44 20.0907 29.2747 19.824 29.2C19.568 29.1253 19.1893 29.088 18.688 29.088C18.6667 29.088 18.64 29.088 18.608 29.088C18.5867 29.088 18.56 29.088 18.528 29.088C18.5067 29.088 18.48 29.088 18.448 29.088C18.416 29.088 18.384 29.088 18.352 29.088C18.3307 29.088 18.3093 29.088 18.288 29.088C16.7093 29.088 15.3973 29.008 14.352 28.848C13.3067 28.6773 12.48 28.4427 11.872 28.144C11.264 27.8453 10.832 27.4933 10.576 27.088C10.32 26.672 10.192 26.208 10.192 25.696C10.192 25.152 10.336 24.6613 10.624 24.224C10.912 23.776 11.3173 23.3867 11.84 23.056C12.3733 22.7147 12.992 22.432 13.696 22.208C14.4107 21.984 15.1893 21.8133 16.032 21.696C16.8853 21.5787 17.776 21.52 18.704 21.52C20.016 21.52 21.1893 21.6373 22.224 21.872C23.2693 22.1067 24.144 22.4427 24.848 22.88C25.5627 23.3173 26.0747 23.84 26.384 24.448C26.6933 25.056 26.768 25.7387 26.608 26.496L20 26.8C20.1173 26.4907 20.112 26.24 19.984 26.048C19.856 25.8453 19.6533 25.7013 19.376 25.616C19.1093 25.52 18.8053 25.472 18.464 25.472C18.2507 25.472 18.0587 25.4933 17.888 25.536C17.7173 25.568 17.568 25.6213 17.44 25.696C17.3227 25.76 17.2267 25.84 17.152 25.936C17.088 26.032 17.056 26.1333 17.056 26.24C17.056 26.368 17.0987 26.4747 17.184 26.56C17.2693 26.6347 17.3973 26.688 17.568 26.72C17.7493 26.752 17.984 26.768 18.272 26.768C18.2933 26.768 18.3147 26.768 18.336 26.768C18.368 26.768 18.3947 26.768 18.416 26.768C18.448 26.768 18.4747 26.768 18.496 26.768C18.528 26.768 18.5547 26.768 18.576 26.768C18.608 26.768 18.64 26.768 18.672 26.768ZM43.9811 22H51.2451C50.6584 23.0667 50.0717 24.1333 49.4851 25.2C48.8984 26.2667 48.3064 27.3333 47.7091 28.4C47.1224 29.4667 46.5357 30.5333 45.9491 31.6V34H39.3091V31.584C38.9357 30.944 38.5624 30.304 38.1891 29.664C37.8264 29.024 37.4584 28.384 37.0851 27.744C36.7224 27.104 36.3544 26.4693 35.9811 25.84C35.6077 25.2 35.2344 24.56 34.8611 23.92C34.4984 23.28 34.1304 22.64 33.7571 22H41.4371C41.5757 22.512 41.7091 23.024 41.8371 23.536C41.9757 24.048 42.1144 24.56 42.2531 25.072C42.3917 25.584 42.5251 26.096 42.6531 26.608C42.6531 26.608 42.6531 26.6133 42.6531 26.624C42.6637 26.624 42.6691 26.624 42.6691 26.624C42.6797 26.6133 42.6851 26.608 42.6851 26.608C42.7917 26.224 42.8984 25.84 43.0051 25.456C43.1117 25.072 43.2184 24.688 43.3251 24.304C43.4424 23.92 43.5544 23.536 43.6611 23.152C43.7677 22.768 43.8744 22.384 43.9811 22ZM66.422 26.768C68.022 26.768 69.3607 26.8373 70.438 26.976C71.5153 27.1147 72.374 27.3333 73.014 27.632C73.654 27.92 74.1127 28.2933 74.39 28.752C74.6673 29.2 74.806 29.7333 74.806 30.352C74.806 31.024 74.5873 31.6213 74.15 32.144C73.7233 32.656 73.1207 33.088 72.342 33.44C71.574 33.7813 70.678 34.0373 69.654 34.208C68.6407 34.3893 67.5473 34.48 66.374 34.48C65.0727 34.48 63.8887 34.384 62.822 34.192C61.7553 34 60.8487 33.7067 60.102 33.312C59.3553 32.9067 58.7953 32.3893 58.422 31.76C58.0593 31.1307 57.9153 30.3787 57.99 29.504L64.822 29.04C64.7367 29.36 64.758 29.6267 64.886 29.84C65.0247 30.0533 65.238 30.2133 65.526 30.32C65.814 30.4267 66.134 30.48 66.486 30.48C66.6993 30.48 66.8913 30.464 67.062 30.432C67.2433 30.4 67.4033 30.352 67.542 30.288C67.6807 30.224 67.7873 30.144 67.862 30.048C67.9367 29.9413 67.974 29.824 67.974 29.696C67.974 29.44 67.8407 29.2747 67.574 29.2C67.318 29.1253 66.9393 29.088 66.438 29.088C66.4167 29.088 66.39 29.088 66.358 29.088C66.3367 29.088 66.31 29.088 66.278 29.088C66.2567 29.088 66.23 29.088 66.198 29.088C66.166 29.088 66.134 29.088 66.102 29.088C66.0807 29.088 66.0593 29.088 66.038 29.088C64.4593 29.088 63.1473 29.008 62.102 28.848C61.0567 28.6773 60.23 28.4427 59.622 28.144C59.014 27.8453 58.582 27.4933 58.326 27.088C58.07 26.672 57.942 26.208 57.942 25.696C57.942 25.152 58.086 24.6613 58.374 24.224C58.662 23.776 59.0673 23.3867 59.59 23.056C60.1233 22.7147 60.742 22.432 61.446 22.208C62.1607 21.984 62.9393 21.8133 63.782 21.696C64.6353 21.5787 65.526 21.52 66.454 21.52C67.766 21.52 68.9393 21.6373 69.974 21.872C71.0193 22.1067 71.894 22.4427 72.598 22.88C73.3127 23.3173 73.8247 23.84 74.134 24.448C74.4433 25.056 74.518 25.7387 74.358 26.496L67.75 26.8C67.8673 26.4907 67.862 26.24 67.734 26.048C67.606 25.8453 67.4033 25.7013 67.126 25.616C66.8593 25.52 66.5553 25.472 66.214 25.472C66.0007 25.472 65.8087 25.4933 65.638 25.536C65.4673 25.568 65.318 25.6213 65.19 25.696C65.0727 25.76 64.9767 25.84 64.902 25.936C64.838 26.032 64.806 26.1333 64.806 26.24C64.806 26.368 64.8487 26.4747 64.934 26.56C65.0193 26.6347 65.1473 26.688 65.318 26.72C65.4993 26.752 65.734 26.768 66.022 26.768C66.0433 26.768 66.0647 26.768 66.086 26.768C66.118 26.768 66.1447 26.768 66.166 26.768C66.198 26.768 66.2247 26.768 66.246 26.768C66.278 26.768 66.3047 26.768 66.326 26.768C66.358 26.768 66.39 26.768 66.422 26.768ZM96.1631 22V26.864H92.3071C92.3071 26.864 92.3017 26.8693 92.2911 26.88C92.2911 26.88 92.2857 26.88 92.2751 26.88C92.2751 26.88 92.2751 26.8853 92.2751 26.896C92.2751 27.3653 92.2751 27.84 92.2751 28.32C92.2751 28.7893 92.2751 29.264 92.2751 29.744C92.2751 30.2133 92.2751 30.688 92.2751 31.168C92.2751 31.6373 92.2751 32.112 92.2751 32.592C92.2751 33.0613 92.2751 33.5307 92.2751 34H85.6351C85.6351 33.2107 85.6351 32.4213 85.6351 31.632C85.6351 30.8427 85.6351 30.0533 85.6351 29.264C85.6351 28.4747 85.6351 27.6853 85.6351 26.896C85.6351 26.8853 85.6297 26.88 85.6191 26.88C85.6191 26.8693 85.6137 26.864 85.6031 26.864H81.7471V22H96.1631Z" fill="#DAA41E"/>
<path d="M30.514 34.144C29.794 34.144 29.218 33.928 28.786 33.496C28.37 33.064 28.162 32.496 28.162 31.792C28.162 31.104 28.37 30.552 28.786 30.136C29.218 29.704 29.794 29.488 30.514 29.488C31.266 29.488 31.842 29.704 32.242 30.136C32.658 30.552 32.866 31.104 32.866 31.792C32.866 32.496 32.658 33.064 32.242 33.496C31.842 33.928 31.266 34.144 30.514 34.144ZM54.4749 34.144C53.7549 34.144 53.1789 33.928 52.7469 33.496C52.3309 33.064 52.1229 32.496 52.1229 31.792C52.1229 31.104 52.3309 30.552 52.7469 30.136C53.1789 29.704 53.7549 29.488 54.4749 29.488C55.2269 29.488 55.8029 29.704 56.2029 30.136C56.6189 30.552 56.8269 31.104 56.8269 31.792C56.8269 32.496 56.6189 33.064 56.2029 33.496C55.8029 33.928 55.2269 34.144 54.4749 34.144ZM78.264 34.144C77.544 34.144 76.968 33.928 76.536 33.496C76.12 33.064 75.912 32.496 75.912 31.792C75.912 31.104 76.12 30.552 76.536 30.136C76.968 29.704 77.544 29.488 78.264 29.488C79.016 29.488 79.592 29.704 79.992 30.136C80.408 30.552 80.616 31.104 80.616 31.792C80.616 32.496 80.408 33.064 79.992 33.496C79.592 33.928 79.016 34.144 78.264 34.144Z" fill="#FFFEFF"/>
</svg>
